<?xml version="1.0" standalone="no"?>
<svg viewBox="0 0 200 200" xmlns="http://www.w3.org/2000/svg">
  <path fill="#734F96" d="M36.4,-53.2C48.7,-48.7,61.2,-41.2,69.2,-29.8C77.2,-18.4,80.7,-3.2,78.1,10.9C75.5,24.9,66.9,37.7,56,46.3C45.1,55,32,59.6,19.8,59.6C7.6,59.6,-3.6,55.2,-17,53.3C-30.3,51.4,-45.7,52.1,-54.1,45.3C-62.6,38.4,-64.1,23.9,-62.4,11.2C-60.7,-1.5,-55.9,-12.4,-49.5,-20.9C-43,-29.4,-34.9,-35.6,-26.4,-41.8C-17.8,-48,-8.9,-54.4,1.6,-56.8C12,-59.2,24.1,-57.7,36.4,-53.2Z" transform="translate(100 100)" />
</svg>
