<?xml version="1.0" standalone="no"?>
<svg viewBox="0 0 200 200" xmlns="http://www.w3.org/2000/svg">
  <path fill="#734F96" d="M34.9,-55.8C48.4,-45.7,64.6,-41.3,67.9,-31.7C71.2,-22.1,61.6,-7.3,57.6,7.1C53.7,21.5,55.4,35.5,50.4,46.8C45.5,58,33.7,66.5,20.2,71.9C6.7,77.4,-8.7,79.7,-20.5,74.2C-32.3,68.7,-40.4,55.4,-44.9,43C-49.4,30.5,-50.2,18.9,-56.3,5.4C-62.4,-8.1,-73.9,-23.5,-72.8,-36.2C-71.6,-48.9,-57.9,-58.9,-43.7,-68.6C-29.5,-78.4,-14.8,-87.9,-2,-84.7C10.7,-81.6,21.4,-65.8,34.9,-55.8Z" transform="translate(100 100)" />
</svg>
