<?xml version="1.0" standalone="no"?>
<svg viewBox="0 0 200 200" xmlns="http://www.w3.org/2000/svg">
  <path fill="#734F96" d="M43,-68.9C55.3,-58.9,64.6,-46.4,72,-32.3C79.3,-18.2,84.6,-2.6,84,13.1C83.4,28.9,76.8,44.9,66.4,58.2C55.9,71.6,41.6,82.4,25.4,87.7C9.2,93,-9,92.8,-25.8,87.9C-42.6,83,-58,73.3,-67.3,59.8C-76.6,46.4,-79.9,29.2,-82.6,11.7C-85.4,-5.7,-87.7,-23.4,-82,-38C-76.2,-52.6,-62.4,-64.2,-47.4,-72.9C-32.4,-81.6,-16.2,-87.6,-0.5,-86.9C15.3,-86.2,30.6,-78.8,43,-68.9Z" transform="translate(100 100)" />
</svg>
