<?xml version="1.0" standalone="no"?>
<svg viewBox="0 0 200 200" xmlns="http://www.w3.org/2000/svg">
  <path fill="#734F96" d="M43,-64.8C53.4,-60.3,57.9,-44.4,56.4,-30.7C54.9,-17,47.5,-5.6,49.1,9.5C50.7,24.6,61.2,43.4,56.7,49.9C52.2,56.4,32.7,50.6,17.5,51.1C2.3,51.7,-8.5,58.7,-16.1,55.9C-23.6,53.1,-28,40.6,-32.9,30.8C-37.8,21,-43.2,14,-49,4.2C-54.9,-5.6,-61.1,-18.2,-58.1,-27.2C-55,-36.3,-42.8,-41.9,-31.5,-46C-20.3,-50.1,-10.2,-52.7,3.1,-57.5C16.3,-62.3,32.7,-69.3,43,-64.8Z" transform="translate(100 100)" />
</svg>
